<?xml version="1.0" encoding="utf-8"?>
<!-- Generator: Adobe Illustrator 27.3.1, SVG Export Plug-In . SVG Version: 6.00 Build 0)  -->
<svg version="1.1" id="Layer_1" xmlns="http://www.w3.org/2000/svg" xmlns:xlink="http://www.w3.org/1999/xlink" x="0px" y="0px"
	 viewBox="0 0 3333 2534.46" style="enable-background:new 0 0 3333 2534.46;" xml:space="preserve">
<style type="text/css">
	.st0{fill-rule:evenodd;clip-rule:evenodd;fill:#4E46E5;}
	.st1{font-family:'ProximaNova-Black';}
	.st2{font-size:451.4931px;}
</style>
<g>
	<path class="st0" d="M994.32,1111.29c167.33-11.52,283.99-46.39,371.82-94.66c-18.3-36.8-42.43-70.17-71.18-98.93
		c-68.25-68.25-162.56-110.48-266.72-110.48c-104.17,0-198.48,42.23-266.73,110.48c-68.25,68.25-110.48,162.56-110.48,266.72
		c0,104.17,42.22,198.47,110.48,266.72c346.23,346.22,704.25-55.65,783.78-289.07c0.31,7.41,0.48,14.86,0.48,22.35
		c0,142.91-57.94,272.29-151.58,365.95c-93.66,93.65-223.04,151.59-365.95,151.59c-142.91,0-272.3-57.94-365.95-151.59
		c-93.65-93.65-151.59-223.04-151.59-365.95c0-142.91,57.93-272.3,151.59-365.94c93.65-93.66,223.04-151.59,365.95-151.59
		c88.15,0,171.14,22.05,243.79,60.93l-51.32-151.5l-357.99-86.83c205.82,13.9,404.7,15.29,564.77-53.5v140.33h-58.9l118.95,351.12
		c49.29-46.96,88.17-98.82,127.1-150.78c97.24-129.78,194.91-260.1,417.19-336.62l-47.42-145.92l-407.6-38.38
		c193.65-14.97,396.44-41.15,509.33-101.78l15.74,48.43l153.84,473.42c31.12-5.85,63.24-8.9,96.06-8.9
		c142.91,0,272.29,57.94,365.95,151.59c93.65,93.65,151.58,223.04,151.58,365.94c0,142.91-57.94,272.29-151.58,365.95
		c-93.66,93.65-223.04,151.59-365.95,151.59c-142.9,0-272.3-57.94-365.95-151.59c-93.65-93.65-151.59-223.04-151.59-365.95
		c0-142.91,57.93-272.3,151.59-365.94c22.99-22.99,48.13-43.82,75.09-62.18c-217.47,338.32-123.05,805.32,290.85,805.32
		c104.17,0,198.48-42.22,266.73-110.47c68.25-68.26,110.47-162.56,110.47-266.72c0-104.16-42.23-198.47-110.47-266.72
		c-68.25-68.25-162.56-110.48-266.73-110.48c-17.71,0-35.13,1.22-52.19,3.58l123.01,378.55
		c-104.72-43.56-182.53-93.77-253.47-326.79l-93.96-289.14c-181.94,64.56-265.5,176.05-348.7,287.09
		C1605.74,1021.68,1309.03,1290.18,994.32,1111.29z"/>
</g>
<g>
	<text transform="matrix(1 0 0 1 225.8438 2309.2002)" class="st1 st2">BICYCLE APP</text>
</g>
</svg>
